<svg xmlns="http://www.w3.org/2000/svg" version="1.0" width="1024.000000pt" height="1024.000000pt" viewBox="0 0 1024.000000 1024.000000" preserveAspectRatio="xMidYMid meet">
<metadata fill="#a99eff">
Created by potrace 1.16, written by Peter Selinger 2001-2019
</metadata>
<g transform="translate(0.000000,1024.000000) scale(0.100000,-0.100000)" fill="#a99eff" stroke="none">
<path d="M3685 8450 c-167 -35 -319 -155 -404 -319 -133 -258 -116 -481 54 -711 130 -174 265 -279 479 -370 174 -74 457 -144 635 -158 52 -4 96 -11 98 -17 2 -7 -410 -9 -1227 -7 -907 2 -1235 0 -1250 -8 -51 -27 -51 -35 -46 -690 3 -404 8 -615 15 -628 19 -35 69 -43 263 -41 183 2 183 2 188 -1843 4 -1534 7 -1848 19 -1861 7 -9 30 -21 50 -27 24 -6 893 -10 2571 -10 2393 0 2537 1 2570 18 24 11 39 28 47 52 9 27 12 468 12 1853 1 1818 1 1818 201 1820 200 2 200 2 227 30 28 27 28 27 28 646 0 605 0 619 -20 641 -11 12 -31 26 -44 31 -17 7 -1765 21 -2441 20 -13 0 -13 1 0 8 8 5 56 11 105 15 224 17 505 95 709 198 287 144 526 459 526 694 0 197 -69 374 -194 498 -123 122 -232 168 -411 174 -112 3 -126 2 -215 -27 -103 -33 -241 -106 -328 -173 -142 -109 -312 -294 -463 -503 -98 -135 -263 -404 -295 -480 -8 -19 -18 -35 -23 -35 -5 0 -25 34 -45 76 -79 167 -268 453 -409 621 -222 264 -420 416 -647 494 -71 25 -259 35 -335 19z m307 -247 c124 -49 238 -131 384 -277 201 -202 329 -382 508 -716 43 -80 84 -152 92 -161 21 -23 17 -32 -10 -25 -13 3 -99 17 -192 31 -316 47 -418 66 -568 105 -405 104 -594 221 -735 454 -53 88 -64 130 -57 218 13 181 134 339 301 395 66 22 187 11 277 -24z m2539 21 c181 -54 299 -221 299 -421 0 -88 -14 -125 -81 -225 -160 -235 -395 -361 -844 -453 -105 -22 -638 -95 -644 -89 -3 3 0 13 7 22 6 9 30 51 53 92 224 399 360 593 553 785 247 246 470 344 657 289z m-1523 -1985 c-3 -421 -3 -421 -46 -425 -112 -10 -308 -66 -442 -126 -282 -126 -568 -402 -727 -698 -73 -137 -146 -361 -160 -492 -6 -58 -6 -58 -148 -58 -140 0 -143 0 -169 -26 -22 -23 -26 -35 -26 -84 0 -42 5 -64 19 -81 18 -23 27 -24 168 -29 110 -4 147 -8 146 -17 -5 -26 39 -229 72 -329 180 -550 614 -924 1191 -1027 124 -22 124 -22 124 -439 l0 -418 -1150 0 -1150 0 0 1839 c0 1840 0 1840 -24 1868 -24 28 -24 28 -230 30 -206 1 -206 1 -207 458 l0 457 1298 5 c714 3 1300 7 1302 9 2 2 40 4 83 4 78 0 78 0 76 -421z m1332 405 c553 -3 1025 -7 1050 -9 25 -2 171 -4 325 -4 280 -1 280 -1 278 -452 -2 -451 -2 -451 -198 -450 -195 2 -195 2 -225 -28 -30 -29 -30 -29 -30 -1870 l0 -1841 -1155 0 -1155 0 0 419 c0 419 0 419 83 431 304 44 550 154 782 351 267 225 457 578 509 944 11 80 11 80 175 85 156 5 164 6 182 29 14 17 19 39 19 83 0 49 -4 63 -25 83 -24 24 -28 25 -183 25 -159 0 -159 0 -166 69 -29 292 -179 605 -403 841 -240 252 -527 403 -870 456 -103 17 -103 17 -103 389 0 205 -3 394 -7 420 -6 48 -6 48 53 42 32 -4 511 -9 1064 -13z m-945 -1073 c253 -62 445 -169 620 -345 387 -389 486 -953 254 -1453 -205 -444 -636 -714 -1144 -716 -206 0 -410 50 -611 151 -228 115 -386 273 -518 523 -81 152 -116 265 -141 459 -37 282 54 611 243 873 69 96 232 254 329 319 145 98 325 171 498 203 111 20 361 13 470 -14z" fill="#a99eff"/>
<path d="M5057 5123 c-39 -10 -47 -52 -47 -246 0 -184 0 -184 -65 -216 -78 -39 -145 -104 -177 -171 -23 -49 -23 -49 -245 -50 -216 0 -223 -1 -248 -23 -51 -43 -41 -157 14 -187 12 -6 106 -10 234 -10 213 0 213 0 237 -57 30 -74 115 -160 193 -196 57 -28 57 -28 57 -218 0 -190 0 -190 26 -214 44 -41 145 -33 181 14 9 11 12 73 13 207 0 192 0 192 27 199 43 10 105 51 149 97 41 42 94 130 94 155 0 10 48 13 211 13 131 0 218 4 231 11 25 13 48 68 48 114 0 27 -8 44 -29 66 -29 29 -29 29 -245 29 -215 0 -215 0 -238 47 -34 68 -103 135 -181 173 -67 33 -67 33 -67 217 0 238 -7 254 -108 252 -26 -1 -55 -3 -65 -6z m114 -635 c79 -26 128 -91 129 -168 0 -79 -68 -161 -147 -176 -81 -15 -173 44 -197 126 -28 94 17 182 111 215 47 18 61 18 104 3z" fill="#a99eff"/>
</g>
</svg>